<svg width="93" height="103" viewBox="0 0 93 103" fill="none" xmlns="http://www.w3.org/2000/svg">
<path d="M9.42218 77.5132V85.7554H7.93299V78.7944H3.67816V85.7554H2.18896V77.5132H9.42218Z" fill="white"/>
<path d="M18.1446 77.8548C18.6552 78.1111 19.0807 78.41 19.3785 78.8798C19.6764 79.3068 19.804 79.862 19.804 80.4599C19.804 81.0578 19.6764 81.5702 19.3785 82.04C19.0807 82.5098 18.6978 82.8087 18.1446 83.065C17.6341 83.3212 16.9958 83.4066 16.2725 83.4066H14.4004V85.7981H12.8687V77.5132H16.23C16.9958 77.5132 17.6341 77.6413 18.1446 77.8548ZM17.7617 81.6557C18.1021 81.3567 18.2723 80.9724 18.2723 80.4599C18.2723 79.9474 18.1021 79.5204 17.7617 79.2641C17.4213 78.9652 16.9107 78.8371 16.23 78.8371H14.4429V82.1254H16.23C16.9107 82.0827 17.4213 81.9546 17.7617 81.6557Z" fill="white"/>
<path d="M24.0589 85.3285C23.3781 84.9442 22.8675 84.4744 22.4846 83.7911C22.1017 83.1078 21.8889 82.4245 21.8889 81.6131C21.8889 80.8017 22.1017 80.0757 22.4846 79.4351C22.8675 78.7945 23.3781 78.2821 24.0589 77.8977C24.7397 77.5134 25.5055 77.3425 26.314 77.3425C27.1649 77.3425 27.8882 77.5134 28.569 77.8977C29.2498 78.2821 29.7604 78.7518 30.1433 79.3924C30.5262 80.033 30.739 80.759 30.739 81.5704C30.739 82.3818 30.5262 83.1078 30.1433 83.7484C29.7604 84.389 29.2498 84.9015 28.569 85.2431C27.8882 85.5848 27.1224 85.7983 26.314 85.7983C25.5055 85.8837 24.7397 85.7129 24.0589 85.3285ZM27.8031 84.1755C28.2286 83.9192 28.569 83.5776 28.8243 83.1505C29.0796 82.7235 29.2072 82.211 29.2072 81.6558C29.2072 81.1007 29.0796 80.5882 28.8243 80.1611C28.569 79.7341 28.2286 79.3924 27.8031 79.1362C27.3777 78.8799 26.8671 78.7518 26.314 78.7518C25.7608 78.7518 25.2928 78.8799 24.8248 79.1362C24.3993 79.3924 24.0589 79.7341 23.8036 80.1611C23.5483 80.5882 23.4207 81.1007 23.4207 81.6558C23.4207 82.211 23.5483 82.7235 23.8036 83.1505C24.0589 83.5776 24.3993 83.9192 24.8248 84.1755C25.2502 84.4317 25.7608 84.5598 26.314 84.5598C26.8671 84.5598 27.3777 84.4317 27.8031 84.1755Z" fill="white"/>
<path d="M39.8016 84.4743V85.7554H33.6321V77.5132H39.6314V78.7944H35.1638V80.9297H39.1208V82.2108H35.1638V84.4743H39.8016Z" fill="white"/>
<path d="M45.7158 82.2962H44.184V85.7554H42.6948V77.5132H44.184V80.9724H45.7583L48.0985 77.5132H49.7153L46.9071 81.5275L49.8004 85.7981H48.0559L45.7158 82.2962Z" fill="white"/>
<path d="M57.9274 78.7944H55.2043V85.7554H53.6726V78.7944H50.9495V77.5132H57.8848V78.7944H57.9274Z" fill="white"/>
<path d="M67.7133 77.5132V85.7554H66.1816V82.2108H61.9268V85.7554H60.395V77.5132H61.9268V80.9297H66.1816V77.5132H67.7133Z" fill="white"/>
<path d="M77.2442 80.9724C77.7548 81.3994 78.0526 82.0827 78.0526 82.9368C78.0526 83.8337 77.7548 84.5597 77.2016 85.0294C76.606 85.4992 75.7976 85.7554 74.7764 85.7554H71.2449V77.5132H72.7341V80.2891H75.0317C75.9677 80.3318 76.7336 80.5453 77.2442 80.9724ZM76.0528 84.1753C76.3932 83.9191 76.5209 83.492 76.5209 82.9795C76.5209 81.9973 75.8826 81.4848 74.6487 81.4848H72.6915V84.6024H74.6487C75.287 84.6024 75.7125 84.4315 76.0528 84.1753ZM79.244 77.5132H80.7332V85.7554H79.244V77.5132Z" fill="white"/>
<path d="M90.3914 84.4743V85.7554H84.2219V77.5132H90.2212V78.7944H85.7537V80.9297H89.7107V82.2108H85.7537V84.4743H90.3914Z" fill="white"/>
<path d="M0 92.7168H1.48919V98.5675L5.91421 92.7168H7.31831V100.959H5.82912V95.1083L1.4041 100.959H0V92.7168Z" fill="white"/>
<path d="M18.1256 92.7168V100.959H16.5939V97.4145H12.339V100.959H10.8499V92.7168H12.3816V96.1333H16.6364V92.7168H18.1256Z" fill="white"/>
<path d="M28.9328 92.7168V100.959H27.4011V97.4145H23.1462V100.959H21.6145V92.7168H23.1462V96.1333H27.4011V92.7168H28.9328Z" fill="white"/>
<path d="M33.9109 100.532C33.2302 100.148 32.7196 99.6778 32.3366 98.9945C31.9537 98.3112 31.741 97.6279 31.741 96.8165C31.741 96.0051 31.9537 95.2791 32.3366 94.6385C32.7196 93.9979 33.2302 93.4854 33.9109 93.1011C34.5917 92.7167 35.3576 92.5459 36.166 92.5459C37.017 92.5459 37.7403 92.7167 38.4211 93.1011C39.1018 93.4854 39.6124 93.9552 39.9953 94.5958C40.3783 95.2364 40.591 95.9624 40.591 96.7738C40.591 97.5852 40.3783 98.3112 39.9953 98.9518C39.6124 99.5924 39.1018 100.105 38.4211 100.446C37.7403 100.831 36.9744 101.002 36.166 101.002C35.3576 101.087 34.5917 100.916 33.9109 100.532ZM37.6552 99.3788C38.0807 99.1226 38.4211 98.781 38.6763 98.3539C38.9316 97.9268 39.0593 97.4144 39.0593 96.8592C39.0593 96.304 38.9316 95.7915 38.6763 95.3645C38.4211 94.9374 38.0807 94.5958 37.6552 94.3395C37.2297 94.0833 36.7191 93.9552 36.166 93.9552C35.6129 93.9552 35.1448 94.0833 34.6768 94.3395C34.2513 94.5958 33.9109 94.9374 33.6556 95.3645C33.4004 95.7915 33.2727 96.304 33.2727 96.8592C33.2727 97.4144 33.4004 97.9268 33.6556 98.3539C33.9109 98.781 34.2513 99.1226 34.6768 99.3788C35.1023 99.6351 35.6129 99.7632 36.166 99.7632C36.7191 99.7205 37.2297 99.6351 37.6552 99.3788Z" fill="white"/>
<path d="M50.0794 97.4145C50.3347 97.7561 50.5049 98.1832 50.5049 98.6956C50.5049 99.4216 50.2496 99.9768 49.6964 100.361C49.1433 100.746 48.3774 100.959 47.3988 100.959H43.4844V92.7168H47.1435C48.0796 92.7168 48.8029 92.8876 49.3135 93.272C49.8241 93.6563 50.0794 94.1688 50.0794 94.8521C50.0794 95.2792 49.9943 95.6635 49.7815 95.9625C49.5688 96.2614 49.2709 96.5176 48.888 96.6885C49.3986 96.8166 49.8241 97.0728 50.0794 97.4145ZM45.0161 96.2187H47.0584C47.569 96.2187 47.9094 96.1333 48.1647 95.9197C48.42 95.7062 48.5476 95.45 48.5476 95.0656C48.5476 94.6813 48.42 94.3823 48.1647 94.1688C47.9094 93.9553 47.5265 93.8699 47.0584 93.8699H45.0161V96.2187ZM48.9731 98.5675C48.9731 97.7561 48.42 97.3717 47.3563 97.3717H45.0161V99.806H47.3563C48.42 99.806 48.9731 99.3789 48.9731 98.5675Z" fill="white"/>
<path d="M58.8444 99.0373H54.7172L53.9088 100.959H52.3345L56.0362 92.7168H57.5254L61.2271 100.959H59.6102L58.8444 99.0373ZM58.3763 97.8415L56.8446 94.2542L55.3129 97.8415H58.3763Z" fill="white"/>
<path d="M72.1193 99.6779V102.795H70.7152V101.002H63.7373V92.7168H65.2265V99.6779H69.3537V92.7168H70.8854V99.6779H72.1193Z" fill="white"/>
<path d="M74.6724 92.7168H76.1616V98.5675L80.5866 92.7168H81.9907V100.959H80.5015V95.1083L76.0765 100.959H74.6724V92.7168Z" fill="white"/>
<path d="M85.5222 92.7168H87.0114V98.5675L91.4364 92.7168H92.8405V100.959H91.3513V95.1083L86.9263 100.959H85.5222V92.7168Z" fill="white"/>
<path d="M30.2549 31.6358C31.5776 32.098 32.89 32.4883 34.1717 32.7759C35.5662 31.492 36.9915 30.4546 38.4885 29.6329C35.9969 29.715 33.2182 30.3519 30.2549 31.6358ZM22.698 23.1003C22.3802 23.1003 22.0213 23.1311 21.7034 23.1722C20.1346 23.316 18.5248 23.5317 16.8843 23.7782C16.8535 23.7782 16.8125 23.8193 16.7817 23.8193C16.8125 23.8193 16.8535 23.8501 16.8843 23.8912C19.8065 26.1817 22.698 28.0716 25.5485 29.5301C27.2198 28.6365 28.8604 27.9278 30.4292 27.3834C27.9376 26.3563 25.3332 24.8875 22.698 23.1003ZM33.577 39.3187C34.9305 39.0722 36.2532 38.7846 37.4631 38.3943C38.0373 36.6482 38.7448 35.0356 39.6061 33.6079C37.4631 34.8918 35.4637 36.8536 33.577 39.3187ZM22.5955 35.8881C22.3802 36.0319 22.1341 36.1757 21.8777 36.3503C20.5961 37.2439 19.2733 38.2402 17.9917 39.2777V39.3085C19.1298 39.4831 20.2782 39.5961 21.3753 39.6988C23.0877 39.8426 24.7282 39.9145 26.297 39.9145C27.0148 39.9145 27.6915 39.9145 28.3682 39.8734C29.291 38.343 30.2959 36.9461 31.3623 35.693C28.7579 36.0627 25.8048 36.1038 22.5955 35.8881ZM42.5591 36.3195C41.3492 38.5381 40.5289 41.2806 40.1393 44.4647C41.2057 43.6122 42.2105 42.6467 43.0615 41.6812C42.6617 39.8118 42.4873 38.0348 42.5591 36.3195ZM29.045 46.7757C28.2657 48.4911 27.4762 50.2783 26.7584 52.199C30.1421 50.8432 33.2489 49.2717 35.9558 47.5256C36.0276 45.6664 36.2429 43.9203 36.53 42.2769C34.3973 43.8895 31.8954 45.3891 29.045 46.7757ZM46.517 37.3569C46.5888 39.8939 47.2655 42.6467 48.4754 45.5329C48.9778 44.2079 49.3265 42.924 49.6136 41.6812C48.3319 40.2842 47.2963 38.8565 46.517 37.3569ZM44.1997 45.5329C43.1641 47.998 41.7388 50.5659 39.9547 53.1748C39.9547 53.4932 39.9957 53.8527 40.0265 54.1711C40.17 55.7426 40.3854 57.345 40.6315 58.9884C40.6315 59.0295 40.6315 59.0603 40.6725 59.1014C40.7032 59.0603 40.7032 59.0295 40.7442 58.9884C42.9898 56.0919 44.8764 53.2056 46.3427 50.381C45.4814 48.7478 44.7636 47.1044 44.1997 45.5329ZM55.171 38.3841C53.4279 37.8089 51.8181 37.1001 50.4338 36.2373C51.7155 38.384 53.674 40.3767 56.1348 42.2769C55.9297 40.8903 55.6016 39.6063 55.171 38.3841ZM56.709 47.5256C55.212 46.5601 53.7867 45.5637 52.5358 44.4544C52.8947 47.0633 52.9254 49.9907 52.7101 53.1645C53.7047 54.695 54.8839 56.2357 56.1348 57.8072C56.3091 56.6671 56.4219 55.5578 56.5244 54.4895C56.75 52.0347 56.8115 49.7134 56.709 47.5256ZM58.4931 32.7862C56.8218 33.1457 55.212 33.3203 53.6432 33.3203C53.4689 33.3203 53.2843 33.3203 53.11 33.2792C55.3555 34.4912 58.1035 35.3129 61.3128 35.7032C60.3798 34.635 59.4569 33.6387 58.4931 32.7862ZM64.2966 39.8837C62.4817 39.8118 60.7284 39.5961 59.0878 39.3085C60.6874 41.4141 62.1844 43.9511 63.5789 46.7757C65.2912 47.5975 67.0753 48.3781 68.9927 49.0971C67.6495 45.6767 66.0807 42.5645 64.2966 39.8837ZM58.4521 26.2433C57.0986 27.4964 55.6734 28.5338 54.2071 29.3144C56.6987 29.2425 59.4159 28.5646 62.2254 27.3834C60.954 26.8904 59.703 26.5001 58.4521 26.2433ZM73.0326 33.1354C71.0332 31.7385 69.044 30.5265 67.1163 29.5301C65.5065 30.3519 63.9377 31.0708 62.41 31.6358C64.8298 32.6321 67.4034 34.0598 70.0386 35.8881C70.3565 35.847 70.6436 35.847 70.9614 35.8162C72.5302 35.6724 74.1297 35.4567 75.7703 35.2102C74.8885 34.4604 73.9657 33.7825 73.0326 33.1354ZM55.2427 20.6043C54.7096 22.3197 53.9918 23.8912 53.1715 25.3189C55.2735 24.035 57.2319 22.104 59.0878 19.6799C57.7446 19.8853 56.4629 20.214 55.2427 20.6043ZM71.2895 19.2793C68.8287 19.0636 66.4806 18.9917 64.3069 19.1047C63.384 20.6352 62.3484 22.0731 61.2718 23.316C62.8406 23.1003 64.5119 22.9976 66.2961 22.9976C67.4752 22.9976 68.6851 23.0386 69.9668 23.1003C71.4638 22.0629 73.0326 20.9227 74.5604 19.6696C73.4633 19.495 72.3559 19.3923 71.2895 19.2793ZM52.464 14.5648C51.3977 15.4584 50.4338 16.3828 49.6136 17.3483C50.0032 19.1355 50.1878 20.9227 50.116 22.597C51.2849 20.3886 52.0744 17.677 52.464 14.5648ZM56.7808 11.432C56.709 13.25 56.4937 15.0064 56.2066 16.6499C58.3085 15.0783 60.8104 13.5787 63.5891 12.2229C64.4094 10.5076 65.1887 8.72038 65.9064 6.79964C62.5228 8.14518 59.4877 9.67562 56.7808 11.432ZM44.1997 13.4657C43.7383 14.7908 43.3076 16.0747 43.0615 17.3586C44.3432 18.7144 45.3788 20.1421 46.1684 21.6417C46.0863 19.1047 45.4096 16.352 44.1997 13.4657ZM51.9719 0C49.6853 2.89652 47.7987 5.78277 46.3427 8.6074C47.1937 10.2508 47.9115 11.8942 48.4857 13.4657C49.5213 11.0417 50.9055 8.53549 52.6589 5.96766C52.5358 4.03664 52.2897 2.07481 51.9719 0ZM36.4583 16.6396C36.7044 18.0365 37.0325 19.3512 37.4221 20.6043C39.2062 21.1795 40.8058 21.8883 42.231 22.751C40.9186 20.6043 38.9601 18.5706 36.4583 16.6396ZM40.0265 5.96766C38.9909 4.36533 37.781 2.75272 36.4993 1.15039H36.4685C35.9661 4.79672 35.7918 8.25817 35.8943 11.432C37.4631 12.3975 38.9294 13.4657 40.2111 14.5751C39.8829 11.9661 39.8112 9.06961 40.0265 5.96766ZM31.393 23.316C32.2851 24.3842 33.2489 25.3908 34.2127 26.2433C36.0686 25.8119 37.8528 25.6373 39.5241 25.7092C37.3196 24.4972 34.5716 23.7063 31.393 23.316ZM29.045 12.2126C27.3736 11.3909 25.5895 10.6103 23.6619 9.89131C25.0153 13.3219 26.5841 16.4239 28.3682 19.1047C30.1831 19.1766 31.9365 19.3923 33.577 19.6799C31.9672 17.564 30.4702 15.0373 29.045 12.2126Z" fill="#797979"/>
<path d="M58.4931 32.7862C59.7748 32.4986 61.0975 32.1083 62.4202 31.646C63.948 31.0708 65.5168 30.3621 67.1266 29.5404C69.9771 28.0716 72.8686 26.1817 75.7908 23.9014C75.8318 23.8604 75.8626 23.8295 75.9036 23.8295C75.8626 23.8295 75.8318 23.7885 75.7908 23.7885C75.5037 22.3607 75.1449 21.0049 74.6834 19.6799C74.6834 19.6388 74.6834 19.6388 74.6527 19.608C74.6219 19.6388 74.6219 19.6388 74.5809 19.6799C73.0531 20.933 71.4843 22.0731 69.9873 23.1105C67.3522 24.8978 64.7068 26.3563 62.2562 27.3937C59.4364 28.5749 56.7295 29.2528 54.2379 29.3247C55.7042 28.5338 57.1294 27.5067 58.4829 26.2536C59.4467 25.4011 60.4105 24.3945 61.3026 23.3262C62.3689 22.0731 63.4046 20.6454 64.3376 19.115C66.1217 16.4342 67.6905 13.3322 69.044 9.90159C68.0802 8.76147 67.0856 7.75487 65.9782 6.79964H65.9372C65.2297 8.73065 64.4402 10.5179 63.6199 12.2229C62.2254 15.0475 60.7284 17.5743 59.1288 19.6902C57.2729 22.1142 55.3145 24.0452 53.2125 25.3292C54.0328 23.9014 54.7403 22.3299 55.2838 20.6146C55.6734 19.3615 56.0015 18.0468 56.2476 16.6499C56.5347 15.0064 56.75 13.2603 56.8218 11.432C56.9243 8.25817 56.75 4.78645 56.2476 1.15039H56.2168C54.8223 0.647095 53.4279 0.287598 51.9719 0C52.2897 2.07481 52.5461 4.03664 52.6486 5.96766C52.8639 9.07988 52.7922 11.9661 52.4743 14.5751C52.0847 17.6873 51.2951 20.3989 50.1262 22.6073C50.198 20.933 50.0237 19.1458 49.6238 17.3586C49.3367 16.0747 48.9471 14.7908 48.4857 13.4657C47.9115 11.8942 47.204 10.2508 46.3427 8.6074C44.8764 5.78277 42.9795 2.89652 40.7032 0C39.237 0.287598 37.8528 0.647095 36.4993 1.14012C37.781 2.74245 38.9909 4.35505 40.0265 5.95739C41.7696 8.52522 43.1641 11.0314 44.1997 13.4555C45.4096 16.352 46.0863 19.0944 46.1581 21.6315C45.3788 20.1319 44.3432 18.7041 43.0513 17.3483C42.231 16.3828 41.2672 15.4584 40.2008 14.5648C38.9191 13.4555 37.4529 12.3873 35.8841 11.4217C33.1771 9.67562 30.1421 8.13491 26.7584 6.77909H26.7277C25.6203 7.7446 24.6257 8.74092 23.6619 9.88104C25.5895 10.6 27.3736 11.3807 29.045 12.2024C31.8647 13.5582 34.3563 15.0578 36.4583 16.6293C38.9499 18.5603 40.9186 20.5941 42.231 22.7408C40.8058 21.8883 39.196 21.1693 37.4221 20.5941C36.1712 20.2038 34.9305 19.8751 33.5668 19.6696C31.9262 19.382 30.1831 19.1663 28.358 19.0944C26.1432 18.9917 23.8259 19.0636 21.3753 19.2691C20.309 19.3718 19.2016 19.4848 18.0942 19.6594C18.0532 19.6183 18.0532 19.6183 18.0224 19.5875C17.9814 19.6183 17.9814 19.6183 17.9814 19.6594C17.52 20.9844 17.1611 22.3402 16.874 23.7679C18.5146 23.5214 20.1141 23.3057 21.6829 23.1619C22.0008 23.1208 22.3597 23.09 22.6775 23.09C23.9592 23.0181 25.1691 22.9873 26.3483 22.9873C28.1324 22.9873 29.8037 23.09 31.3725 23.3057C34.5409 23.696 37.2888 24.4869 39.5036 25.6989C37.8322 25.627 36.0481 25.8119 34.1922 26.233C32.9413 26.4795 31.7006 26.8801 30.4189 27.3732C28.8502 27.9073 27.2096 28.6263 25.5383 29.5199C23.6106 30.5162 21.6112 31.7385 19.622 33.1251C18.6992 33.7722 17.7661 34.4501 16.874 35.1999C17.1611 36.5968 17.52 37.9527 17.9814 39.2674C19.2631 38.23 20.5858 37.2337 21.8675 36.34C22.1136 36.1654 22.3699 36.0216 22.5852 35.8778C25.2614 34.0598 27.8248 32.6321 30.2549 31.6255C33.2182 30.3416 35.9969 29.6945 38.4885 29.6226C36.9915 30.4443 35.5662 31.4817 34.1717 32.7656C33.2079 33.6181 32.2851 34.6247 31.352 35.693C30.2856 36.9461 29.2808 38.3327 28.358 39.8734C26.5739 42.5542 25.0051 45.6562 23.6516 49.0868C24.6154 50.2269 25.61 51.2335 26.7174 52.199H26.7482C27.4659 50.268 28.2452 48.4808 29.0347 46.7757C30.46 43.9511 31.957 41.4141 33.5565 39.3085C35.4432 36.8433 37.4426 34.8815 39.5856 33.5976C38.7346 35.0253 38.0168 36.6277 37.4426 38.3841C37.053 39.5961 36.7249 40.88 36.5198 42.2769C36.2327 43.9203 36.0174 45.6664 35.9456 47.5256C35.8328 49.7031 35.9148 52.0244 36.1199 54.4895C36.2327 55.5578 36.3352 56.6671 36.5095 57.8072L36.4378 57.838C36.4685 57.838 36.4685 57.8688 36.5095 57.8688C37.8322 58.331 39.1857 58.6905 40.611 58.9781C40.3649 57.3347 40.1495 55.7324 40.006 54.1608C39.965 53.8424 39.9342 53.4829 39.9342 53.1645C39.7189 49.9907 39.7189 47.0531 40.1085 44.4544C40.4982 41.2806 41.3184 38.5278 42.5284 36.3092C42.4566 38.0246 42.6412 39.8118 43.0308 41.6709C43.2769 42.924 43.6768 44.2079 44.1689 45.5226C44.7431 47.0942 45.4506 48.7376 46.3119 50.381C47.7782 53.2056 49.6648 56.0919 51.9103 58.9884C51.9514 59.0295 51.9514 59.0603 51.9821 59.1014C52.0231 59.0603 52.0231 59.0295 52.0231 58.9884C53.4484 58.7008 54.8018 58.3413 56.1245 57.8791C56.1553 57.8791 56.1553 57.8483 56.1963 57.8483L56.1245 57.8175C54.8736 56.2459 53.7047 54.7052 52.6999 53.1748C50.9158 50.5659 49.4905 47.998 48.4549 45.5329C47.245 42.6364 46.5683 39.8939 46.4965 37.3569C47.2757 38.8565 48.3114 40.2842 49.593 41.6812C50.4133 42.6467 51.4489 43.6122 52.5153 44.4647C53.7662 45.574 55.1915 46.5703 56.6885 47.5358C59.3954 49.282 62.5022 50.8535 65.8859 52.2093H65.9269C67.0343 51.2438 68.0289 50.2475 68.9927 49.0971C67.0651 48.3883 65.281 47.5975 63.5789 46.7757C60.7591 45.3788 58.2265 43.8792 56.1245 42.2769C53.6637 40.387 51.7053 38.384 50.4236 36.2373C51.8181 37.0899 53.4176 37.8089 55.1607 38.3841C56.4116 38.7435 57.6933 39.062 59.0878 39.3085C60.7284 39.5961 62.4715 39.8118 64.2966 39.8837C64.9733 39.9248 65.6501 39.9248 66.3678 39.9248C67.9366 39.9248 69.5772 39.8529 71.2895 39.7091C72.3969 39.6063 73.535 39.4934 74.6732 39.3187V39.2879C75.1346 37.9629 75.4935 36.6071 75.7806 35.2205C74.14 35.467 72.5405 35.6827 70.9717 35.8265C70.6538 35.8573 70.3667 35.8573 70.0488 35.8984C66.8805 36.1141 63.9172 36.073 61.3128 35.7238C58.1035 35.3335 55.3555 34.5117 53.11 33.2997C53.2843 33.3408 53.4689 33.3408 53.6432 33.3408C55.212 33.3203 56.8115 33.1354 58.4931 32.7862ZM46.3324 33.7003C44.0459 33.7003 42.19 31.8412 42.19 29.5507C42.19 27.2602 44.0459 25.4011 46.3324 25.4011C48.619 25.4011 50.4749 27.2602 50.4749 29.5507C50.4749 31.8412 48.619 33.7003 46.3324 33.7003Z" fill="white"/>
</svg>
