<svg width="48" height="55" viewBox="0 0 48 55" fill="none" xmlns="http://www.w3.org/2000/svg">
<circle cx="24" cy="24" class="ic-hover" r="24" fill="#0055A5"/>
<path d="M44 20.6139C44 20.088 43.6151 19.6372 43.0911 19.5514L40.4287 19.1328L39.0601 15.8164L40.6426 13.627C40.9526 13.1977 40.9099 12.6074 40.5356 12.2318L35.7775 7.46656C35.4033 7.09093 34.8152 7.048 34.3875 7.35924L32.2169 8.94765L28.9129 7.57389L28.4852 4.9015C28.3997 4.37561 27.9506 3.99997 27.4267 3.99997H24.0692C23.4812 3.99997 23 4.48293 23 5.07322C23 5.66351 23.4812 6.14647 24.0692 6.14647H26.5071L26.8814 8.50762C26.9348 8.87252 27.1808 9.1945 27.5336 9.33402L31.9496 11.1693C32.2918 11.3088 32.6874 11.2659 32.9868 11.0405L34.9114 9.63453L38.3758 13.1011L36.9751 15.033C36.7612 15.3335 36.7077 15.7306 36.8574 16.074L38.6858 20.5065C38.8248 20.85 39.1349 21.0968 39.5092 21.1612L41.8615 21.5369V26.4523L39.5092 26.828C39.1456 26.8816 38.8248 27.1285 38.6858 27.4827L36.8574 31.9152C36.7184 32.2586 36.7612 32.6557 36.9857 32.9562L38.3865 34.8881L34.9221 38.3547L32.9975 36.9487C32.6981 36.7341 32.3024 36.6804 31.9603 36.8307L27.5443 38.6659C27.2021 38.8054 26.9562 39.1167 26.8921 39.4923L26.5178 41.8535H24.0692C23.4812 41.8535 23 42.3364 23 42.9267C23 43.517 23.4812 44 24.0692 44H27.4374C27.9613 44 28.4104 43.6136 28.4959 43.0877L28.9129 40.4153L32.2169 39.0416L34.3982 40.63C34.8259 40.9412 35.414 40.8983 35.7882 40.5226L40.5356 35.7467C40.9099 35.371 40.9526 34.7808 40.6426 34.3515L39.0601 32.162L40.4287 28.8457L43.0911 28.4164C43.6151 28.3305 44 27.8798 43.9893 27.3539L44 20.6139Z" fill="white"/>
<path d="M24.0449 15C23.4702 15 23 15.471 23 16.0468C23 16.6225 23.4702 17.0936 24.0449 17.0936C27.8276 17.0936 30.8997 20.1712 30.8997 23.9606C30.8997 26.5147 29.4995 28.8386 27.2424 30.032C26.7304 30.3042 26.5319 30.9322 26.8036 31.4452C26.9916 31.8011 27.3574 32 27.7335 32C27.9007 32 28.0679 31.9581 28.2247 31.8744C31.1714 30.3146 33 27.2789 33 23.9396C32.9896 19.0197 28.977 15 24.0449 15Z" fill="white"/>
<path d="M14.2981 14H18.7019C19.9739 14 21 15.0421 21 16.3338L20.9999 36.544C20.9999 37.141 20.5189 37.6295 19.931 37.6295C19.3431 37.6295 18.8621 37.141 18.8621 36.544L18.8622 22.8904H14.1485V44.8612H18.8622L18.862 40.8188C18.862 40.2217 19.343 39.7333 19.9309 39.7333C20.5188 39.7333 20.9998 40.2217 20.9998 40.8188L21 45.9576C21 46.1096 20.9679 46.2507 20.9145 46.3918L17.4834 54.3487C17.3124 54.7503 16.9276 55 16.5 55C16.0724 55 15.6876 54.7394 15.5166 54.3487L12.0855 46.3918C12.0214 46.2507 12 46.1096 12 45.9576V16.3338C12 15.0421 13.0261 14 14.2981 14ZM16.5 51.1898L18.285 47.0323H14.7043L16.5 51.1898ZM14.1485 20.7193H18.8622V16.3338C18.8622 16.247 18.7981 16.1819 18.7126 16.1819H14.3088C14.2233 16.1819 14.1591 16.247 14.1591 16.3338V20.7193H14.1485Z" fill="white"/>
</svg>
