
<svg width="48" height="55" xmlns="http://www.w3.org/2000/svg" viewBox="0 0 48 55">
<circle fill="transparent" class="ic-hover" cx="24" cy="24" r="24"/>
<path class="st1" fill="#ffffff" d="M28.9,46.5h-9.8c-0.5,0-0.8,0.4-0.8,0.9c0,0.5,0.4,0.9,0.8,0.9h9.8c0.5,0,0.8-0.4,0.8-0.9
	C29.7,46.9,29.4,46.5,28.9,46.5z"/>
<path class="st1" fill="#ffffff" d="M27.8,49.9h-7.6c-0.5,0-0.8,0.4-0.8,0.9c0,0.5,0.4,0.9,0.8,0.9h7.6c0.5,0,0.8-0.4,0.8-0.9
	C28.6,50.3,28.3,49.9,27.8,49.9z"/>
<path class="st1" fill="#ffffff" d="M30,22.7c-0.1-0.5-0.6-0.7-1.1-0.6c-0.6,0.2-1.1,0.5-1.6,0.7l0,0c-0.7,0.4-1.3,0.7-1.8,0.3l-1-0.8
	c-0.3-0.3-0.8-0.3-1.1,0l-1,0.9c-0.5,0.4-1.1,0.1-1.8-0.3l0,0c-0.5-0.2-1-0.5-1.6-0.7c-0.4-0.1-0.9,0.1-1.1,0.6c0,0.1,0,0.3,0,0.4
	c0,0,0,0,0,0.1v0c0,0,0,0,0,0.1c0,0,0,0,0,0c0,0,0,0,0,0.1c0,0,0,0,0,0c1.5,2.8,2.4,5.1,2.9,7.6c0.5,2.5,0.6,5.2,0.6,8.8
	c0,0.5,0.4,0.9,0.8,0.9c0.5,0,0.8-0.4,0.8-0.9c0-3.7-0.1-6.5-0.6-9.1c-0.4-2-1-3.8-2-5.9c1,0.4,1.8,0.6,2.9-0.3L24,24l0.5,0.4
	c1,0.9,1.9,0.7,2.9,0.3c-1,2.1-1.6,3.9-2,5.9c-0.5,2.6-0.6,5.4-0.6,9.1c0,0.5,0.4,0.9,0.8,0.9c0.5,0,0.8-0.4,0.8-0.9
	c0-3.6,0.1-6.3,0.6-8.8c0.5-2.5,1.3-4.7,2.9-7.5C30.1,23.2,30.1,23,30,22.7z"/>
<path class="st1" fill="#ffffff" d="M34.6,13.5c-1.4-1.4-3-2.5-4.9-3.3C28,9.4,26,9,24,9c-2,0-4,0.4-5.7,1.2c-1.8,0.8-3.5,1.9-4.9,3.3
	c-1.4,1.4-2.5,3.1-3.2,4.9l0,0C9.4,20.2,9,22.2,9,24.2c0,1.6,0.3,3.2,0.7,4.7c0.5,1.5,1.2,3,2.1,4.3c1.6,2.2,2.9,3.6,3.8,4.7
	c1.7,1.9,2.5,2.8,2.5,5.7c0,0.5,0.4,0.9,0.8,0.9H29c0.5,0,0.8-0.4,0.8-0.9c0-2.9,0.8-3.7,2.5-5.7c1-1.1,2.2-2.5,3.8-4.7
	c0.9-1.3,1.7-2.7,2.1-4.3c0.5-1.5,0.7-3.1,0.7-4.7C39,20,37.3,16.2,34.6,13.5z M36.7,28.5c-0.4,1.4-1.1,2.6-1.9,3.8
	c-1.5,2.1-2.7,3.5-3.7,4.5c-1.9,2.1-2.8,3.1-2.9,6h-8.2c-0.1-2.8-1.1-3.9-3-6c-1-1.1-2.2-2.5-3.7-4.6c-0.8-1.1-1.5-2.4-1.9-3.8
	c-0.4-1.3-0.7-2.7-0.7-4.2c0-1.8,0.4-3.6,1-5.2l0,0c0.7-1.6,1.7-3.1,2.9-4.3c1.2-1.3,2.7-2.3,4.3-2.9c1.6-0.7,3.3-1,5.1-1
	c1.8,0,3.5,0.4,5.1,1c1.6,0.7,3.1,1.7,4.3,2.9c2.4,2.4,3.9,5.8,3.9,9.6C37.3,25.7,37.1,27.1,36.7,28.5z"/>
<path class="st1" fill="#ffffff" d="M26.7,53.3h-5.4c-0.5,0-0.8,0.4-0.8,0.9c0,0.5,0.4,0.9,0.8,0.9h5.4c0.5,0,0.8-0.4,0.8-0.9
	C27.6,53.7,27.2,53.3,26.7,53.3z"/>
<path class="st1" fill="#ffffff" d="M18.7,15.9c0.5-0.3,1.1-0.6,1.6-0.9c0.6-0.3,1.2-0.4,1.8-0.6c0.6-0.1,1.2-0.2,1.9-0.2c0.5,0,0.8-0.4,0.8-0.9
	c0-0.5-0.4-0.9-0.8-0.9c-0.7,0-1.5,0.1-2.2,0.2c-0.7,0.2-1.4,0.4-2.1,0.7c-0.7,0.3-1.3,0.6-1.9,1c-0.6,0.4-1.2,0.9-1.7,1.4
	c-0.5,0.5-1,1.1-1.4,1.7c-0.4,0.6-0.7,1.2-1,1.9c-0.2,0.4,0,0.9,0.4,1.1c0.4,0.2,0.9,0,1.1-0.5c0.2-0.6,0.5-1.1,0.9-1.6
	c0.3-0.5,0.7-1,1.2-1.4C17.7,16.6,18.2,16.2,18.7,15.9z"/>
</svg>
