<svg width="128" height="36" viewBox="0 0 128 36" fill="none" xmlns="http://www.w3.org/2000/svg">
<path d="M9.97166 0.763062V12.0593H7.93069V2.51895H2.09933V12.0593H0.0583496V0.763062H9.97166Z" fill="white"/>
<path d="M21.926 1.2313C22.6257 1.58248 23.2088 1.99218 23.617 2.63601C24.0252 3.22131 24.2002 3.98219 24.2002 4.80161C24.2002 5.62102 24.0252 6.32338 23.617 6.9672C23.2088 7.61103 22.684 8.02073 21.926 8.37191C21.2262 8.72309 20.3515 8.84015 19.3602 8.84015H16.7944V12.1178H14.6951V0.763062H19.3018C20.3515 0.763062 21.2262 0.938652 21.926 1.2313ZM21.4011 6.44043C21.8676 6.03073 22.1009 5.50396 22.1009 4.80161C22.1009 4.09925 21.8676 3.51395 21.4011 3.16278C20.9346 2.75307 20.2349 2.57748 19.3018 2.57748H16.8527V7.08426H19.3018C20.2349 7.02573 20.9346 6.85014 21.4011 6.44043Z" fill="white"/>
<path d="M30.0316 11.474C29.0986 10.9472 28.3988 10.3034 27.874 9.3669C27.3492 8.43043 27.0576 7.49395 27.0576 6.38189C27.0576 5.26983 27.3492 4.27482 27.874 3.39688C28.3988 2.51894 29.0986 1.81658 30.0316 1.28982C30.9646 0.763049 32.0143 0.528931 33.1222 0.528931C34.2885 0.528931 35.2799 0.763049 36.2129 1.28982C37.1459 1.81658 37.8457 2.46041 38.3705 3.33835C38.8953 4.2163 39.1869 5.2113 39.1869 6.32336C39.1869 7.43542 38.8953 8.43043 38.3705 9.30837C37.8457 10.1863 37.1459 10.8887 36.2129 11.3569C35.2799 11.8251 34.2302 12.1178 33.1222 12.1178C32.0143 12.2349 30.9646 12.0007 30.0316 11.474ZM35.1632 9.89367C35.7464 9.54249 36.2129 9.07425 36.5628 8.48896C36.9126 7.90366 37.0876 7.20131 37.0876 6.44042C37.0876 5.67954 36.9126 4.97718 36.5628 4.39188C36.2129 3.80659 35.7464 3.33835 35.1632 2.98717C34.5801 2.636 33.8803 2.46041 33.1222 2.46041C32.3642 2.46041 31.7227 2.636 31.0813 2.98717C30.4981 3.33835 30.0316 3.80659 29.6817 4.39188C29.3319 4.97718 29.1569 5.67954 29.1569 6.44042C29.1569 7.20131 29.3319 7.90366 29.6817 8.48896C30.0316 9.07425 30.4981 9.54249 31.0813 9.89367C31.6644 10.2448 32.3642 10.4204 33.1222 10.4204C33.8803 10.4204 34.5801 10.2448 35.1632 9.89367Z" fill="white"/>
<path d="M51.6076 10.3034V12.0593H43.1521V0.763062H51.3743V2.51895H45.2514V5.44543H50.6746V7.20132H45.2514V10.3034H51.6076Z" fill="white"/>
<path d="M59.7133 7.31838H57.614V12.0593H55.573V0.763062H57.614V5.50396H59.7716L62.9788 0.763062H65.1948L61.3461 6.26485L65.3114 12.1178H62.9205L59.7133 7.31838Z" fill="white"/>
<path d="M76.4492 2.51895H72.7171V12.0593H70.6178V2.51895H66.8857V0.763062H76.3909V2.51895H76.4492Z" fill="white"/>
<path d="M89.8613 0.763062V12.0593H87.762V7.20132H81.9306V12.0593H79.8313V0.763062H81.9306V5.44543H87.762V0.763062H89.8613Z" fill="white"/>
<path d="M102.924 5.50396C103.623 6.08926 104.032 7.02573 104.032 8.19633C104.032 9.42545 103.623 10.4205 102.865 11.0643C102.049 11.7081 100.941 12.0593 99.5415 12.0593H94.7014V0.763062H96.7424V4.56749H99.8913C101.174 4.62602 102.224 4.91867 102.924 5.50396ZM101.291 9.89369C101.757 9.54251 101.932 8.95721 101.932 8.25486C101.932 6.90867 101.058 6.20632 99.3665 6.20632H96.6841V10.479H99.3665C100.241 10.479 100.824 10.2449 101.291 9.89369ZM105.664 0.763062H107.705V12.0593H105.664V0.763062Z" fill="white"/>
<path d="M120.943 10.3034V12.0593H112.487V0.763062H120.709V2.51895H114.586V5.44543H120.01V7.20132H114.586V10.3034H120.943Z" fill="white"/>
<path d="M0 21.5996H2.04098V29.6181L8.10559 21.5996H10.0299V32.8958H7.98896V24.8772L1.92435 32.8958H0V21.5996Z" fill="white"/>
<path d="M24.8415 21.5996V32.8958H22.7422V28.0378H16.9109V32.8958H14.8699V21.5996H16.9692V26.2819H22.8005V21.5996H24.8415Z" fill="white"/>
<path d="M39.6533 21.5996V32.8958H37.554V28.0378H31.7226V32.8958H29.6233V21.5996H31.7226V26.2819H37.554V21.5996H39.6533Z" fill="white"/>
<path d="M46.4759 32.3105C45.5429 31.7838 44.8432 31.1399 44.3183 30.2035C43.7935 29.267 43.502 28.3305 43.502 27.2184C43.502 26.1064 43.7935 25.1114 44.3183 24.2334C44.8432 23.3555 45.5429 22.6531 46.4759 22.1264C47.409 21.5996 48.4586 21.3655 49.5666 21.3655C50.7328 21.3655 51.7242 21.5996 52.6572 22.1264C53.5902 22.6531 54.29 23.297 54.8148 24.1749C55.3396 25.0528 55.6312 26.0478 55.6312 27.1599C55.6312 28.272 55.3396 29.267 54.8148 30.1449C54.29 31.0229 53.5902 31.7252 52.6572 32.1935C51.7242 32.7202 50.6745 32.9543 49.5666 32.9543C48.4586 33.0714 47.409 32.8373 46.4759 32.3105ZM51.6075 30.7302C52.1907 30.379 52.6572 29.9108 53.0071 29.3255C53.3569 28.7402 53.5319 28.0379 53.5319 27.277C53.5319 26.5161 53.3569 25.8137 53.0071 25.2284C52.6572 24.6431 52.1907 24.1749 51.6075 23.8237C51.0244 23.4725 50.3246 23.297 49.5666 23.297C48.8085 23.297 48.167 23.4725 47.5256 23.8237C46.9425 24.1749 46.4759 24.6431 46.1261 25.2284C45.7762 25.8137 45.6012 26.5161 45.6012 27.277C45.6012 28.0379 45.7762 28.7402 46.1261 29.3255C46.4759 29.9108 46.9425 30.379 47.5256 30.7302C48.1087 31.0814 48.8085 31.257 49.5666 31.257C50.3246 31.1985 51.0244 31.0814 51.6075 30.7302Z" fill="white"/>
<path d="M68.635 28.0378C68.9849 28.5061 69.2182 29.0914 69.2182 29.7937C69.2182 30.7887 68.8683 31.5496 68.1102 32.0764C67.3521 32.6032 66.3025 32.8958 64.9613 32.8958H59.5964V21.5996H64.6114C65.8943 21.5996 66.8856 21.8337 67.5854 22.3605C68.2852 22.8872 68.635 23.5896 68.635 24.5261C68.635 25.1114 68.5184 25.6381 68.2268 26.0478C67.9353 26.4575 67.5271 26.8087 67.0023 27.0428C67.702 27.2184 68.2852 27.5696 68.635 28.0378ZM61.6957 26.399H64.4948C65.1945 26.399 65.6611 26.2819 66.0109 25.9893C66.3608 25.6967 66.5358 25.3455 66.5358 24.8187C66.5358 24.2919 66.3608 23.8822 66.0109 23.5896C65.6611 23.2969 65.1362 23.1799 64.4948 23.1799H61.6957V26.399ZM67.1189 29.6181C67.1189 28.5061 66.3608 27.9793 64.903 27.9793H61.6957V31.3155H64.903C66.3608 31.3155 67.1189 30.7302 67.1189 29.6181Z" fill="white"/>
<path d="M80.6478 30.262H74.9914L73.8834 32.8958H71.7258L76.7991 21.5996H78.8401L83.9134 32.8958H81.6975L80.6478 30.262ZM80.0064 28.6231L77.9071 23.7066L75.8078 28.6231H80.0064Z" fill="white"/>
<path d="M98.8416 31.1399V35.4126H96.9172V32.9543H87.3538V21.5996H89.3947V31.1399H95.0512V21.5996H97.1505V31.1399H98.8416Z" fill="white"/>
<path d="M102.34 21.5996H104.381V29.6181L110.446 21.5996H112.37V32.8958H110.329V24.8772L104.265 32.8958H102.34V21.5996Z" fill="white"/>
<path d="M117.21 21.5996H119.251V29.6181L125.316 21.5996H127.24V32.8958H125.199V24.8772L119.135 32.8958H117.21V21.5996Z" fill="white"/>
</svg>
