<svg width="82" height="81" viewBox="0 0 82 81" fill="none" xmlns="http://www.w3.org/2000/svg">
<path d="M18.4653 43.3577C20.2781 43.9911 22.0769 44.5261 23.8334 44.9202C25.7446 43.1606 27.698 41.7388 29.7496 40.6126C26.3348 40.7252 22.5265 41.598 18.4653 43.3577ZM8.10843 31.6595C7.6728 31.6595 7.18095 31.7018 6.74532 31.7581C4.59525 31.9552 2.38897 32.2508 0.140527 32.5886C0.0983692 32.5886 0.0421582 32.6449 0 32.6449C0.0421582 32.6449 0.0983692 32.6872 0.140527 32.7435C4.14556 35.8827 8.10843 38.4729 12.0151 40.4718C14.3057 39.2471 16.5541 38.2758 18.7042 37.5297C15.2894 36.122 11.72 34.109 8.10843 31.6595ZM23.0184 53.8874C24.8734 53.5495 26.6862 53.1554 28.3444 52.6204C29.1313 50.2273 30.101 48.0172 31.2814 46.0605C28.3444 47.8201 25.6041 50.5089 23.0184 53.8874ZM7.9679 49.1856C7.6728 49.3827 7.33553 49.5798 6.98421 49.8191C5.22762 51.0438 3.41482 52.4093 1.65822 53.8311V53.8733C3.21808 54.1126 4.79198 54.2675 6.29563 54.4082C8.64244 54.6053 10.8909 54.7039 13.0409 54.7039C14.0246 54.7039 14.9521 54.7039 15.8796 54.6475C17.1443 52.55 18.5215 50.6356 19.983 48.9181C16.4136 49.4249 12.3664 49.4812 7.9679 49.1856ZM35.3286 49.7768C33.6704 52.8175 32.5461 56.5761 32.0121 60.94C33.4736 59.7716 34.8508 58.4484 36.0172 57.1251C35.4691 54.5631 35.2302 52.1277 35.3286 49.7768ZM16.8071 64.1074C15.7391 66.4583 14.657 68.9077 13.6733 71.5401C18.3107 69.682 22.5687 67.5282 26.2786 65.135C26.377 62.5871 26.6721 60.194 27.0656 57.9416C24.1426 60.1517 20.7137 62.207 16.8071 64.1074ZM40.7529 51.1986C40.8513 54.6757 41.7788 58.4484 43.437 62.4041C44.1256 60.5881 44.6034 58.8285 44.9969 57.1251C43.2403 55.2106 41.821 53.2539 40.7529 51.1986ZM37.577 62.4041C36.1577 65.7826 34.2044 69.3019 31.7592 72.8775C31.7592 73.3139 31.8154 73.8066 31.8576 74.243C32.0543 76.3968 32.3494 78.5928 32.6867 80.8451C32.6867 80.9015 32.6867 80.9437 32.7429 81C32.785 80.9437 32.785 80.9015 32.8413 80.8451C35.9188 76.8754 38.5045 72.9197 40.514 69.0485C39.3336 66.8102 38.3499 64.5579 37.577 62.4041ZM52.6135 52.6064C50.2245 51.818 48.0182 50.8467 46.1211 49.6642C47.8777 52.6064 50.5618 55.3373 53.9344 57.9416C53.6534 56.0412 53.2037 54.2815 52.6135 52.6064ZM54.7214 65.135C52.6697 63.8118 50.7163 62.4463 49.0019 60.926C49.4938 64.5016 49.5359 68.5135 49.2408 72.8634C50.6039 74.9609 52.22 77.0725 53.9344 79.2263C54.1733 77.6637 54.3279 76.1434 54.4684 74.6794C54.7776 71.3149 54.8619 68.1335 54.7214 65.135ZM57.1665 44.9343C54.8759 45.427 52.6697 45.6663 50.5196 45.6663C50.2807 45.6663 50.0278 45.6663 49.7889 45.61C52.8664 47.2711 56.6325 48.3973 61.031 48.9322C59.7522 47.4682 58.4875 46.1027 57.1665 44.9343ZM65.1204 54.6616C62.6331 54.5631 60.23 54.2675 57.9816 53.8733C60.1738 56.7591 62.2255 60.2362 64.1367 64.1074C66.4835 65.2336 68.9287 66.3034 71.5565 67.2888C69.7156 62.6011 67.5656 58.3358 65.1204 54.6616ZM57.1103 35.9672C55.2554 37.6846 53.302 39.1064 51.2925 40.1762C54.7073 40.0777 58.4313 39.1486 62.2817 37.5297C60.5392 36.854 58.8248 36.3191 57.1103 35.9672ZM77.0933 45.4129C74.353 43.4984 71.6268 41.8373 68.9849 40.4718C66.7786 41.598 64.6285 42.5834 62.5347 43.3577C65.8511 44.7231 69.3784 46.6799 72.9899 49.1856C73.4256 49.1293 73.819 49.1293 74.2547 49.0871C76.4047 48.89 78.597 48.5944 80.8454 48.2565C79.6369 47.2289 78.3721 46.2998 77.0933 45.4129ZM52.7118 28.2388C51.9811 30.5897 50.9974 32.7435 49.8732 34.7002C52.754 32.9406 55.4381 30.2941 57.9816 26.9718C56.1407 27.2534 54.3841 27.7039 52.7118 28.2388ZM74.7044 26.4228C71.3317 26.1272 68.1136 26.0287 65.1344 26.1835C63.8697 28.281 62.4504 30.2518 60.9748 31.9552C63.1249 31.6595 65.4155 31.5188 67.8607 31.5188C69.4767 31.5188 71.135 31.5751 72.8916 31.6595C74.9433 30.2377 77.0933 28.6752 79.1872 26.9578C77.6835 26.7185 76.1658 26.5777 74.7044 26.4228ZM48.9035 19.9614C47.4421 21.1861 46.1211 22.4531 44.9969 23.7763C45.5309 26.2258 45.7838 28.6752 45.6855 30.9698C47.2875 27.9432 48.3695 24.2268 48.9035 19.9614ZM54.8197 15.6679C54.7214 18.1595 54.4263 20.5667 54.0328 22.8191C56.9136 20.6653 60.3425 18.61 64.1508 16.7518C65.275 14.4009 66.343 11.9515 67.3267 9.31908C62.6893 11.1632 58.5297 13.2607 54.8197 15.6679ZM37.577 18.4552C36.9447 20.2711 36.3544 22.0308 36.0172 23.7904C37.7738 25.6486 39.1931 27.6053 40.2752 29.6606C40.1627 26.1835 39.2352 22.4108 37.577 18.4552ZM48.229 0C45.0952 3.96976 42.5095 7.92544 40.514 11.7967C41.6804 14.049 42.6641 16.3014 43.4511 18.4552C44.8704 15.133 46.7675 11.6981 49.1705 8.17883C49.0019 5.53232 48.6646 2.84359 48.229 0ZM26.9672 22.805C27.3045 24.7195 27.7542 26.5214 28.2882 28.2388C30.7333 29.0271 32.9256 29.9984 34.8789 31.1809C33.0802 28.2388 30.3961 25.4515 26.9672 22.805ZM31.8576 8.17883C30.4382 5.98279 28.78 3.77268 27.0234 1.57664H26.9813C26.2927 6.57404 26.0538 11.318 26.1943 15.6679C28.3444 16.9911 30.3539 18.4552 32.1105 19.9755C31.6608 16.3999 31.5625 12.4301 31.8576 8.17883ZM20.0252 31.9552C21.2477 33.4192 22.5687 34.7987 23.8897 35.9672C26.4332 35.3759 28.8784 35.1366 31.169 35.2351C28.1476 33.574 24.3815 32.4901 20.0252 31.9552ZM16.8071 16.7377C14.5165 15.6116 12.0713 14.5417 9.42939 13.5563C11.2843 18.2581 13.4344 22.5094 15.8796 26.1835C18.3669 26.2821 20.7699 26.5777 23.0184 26.9718C20.8121 24.0719 18.7604 20.609 16.8071 16.7377Z" fill="url(#paint0_radial)"/>
<path d="M57.167 44.9343C58.9236 44.5401 60.7364 44.0052 62.5492 43.3717C64.6431 42.5834 66.7931 41.6121 68.9994 40.4859C72.9061 38.4729 76.8689 35.8827 80.874 32.7576C80.9302 32.7012 80.9724 32.659 81.0286 32.659C80.9724 32.659 80.9302 32.6027 80.874 32.6027C80.4805 30.646 79.9887 28.7878 79.3563 26.9718C79.3563 26.9155 79.3563 26.9155 79.3141 26.8733C79.272 26.9155 79.272 26.9155 79.2158 26.9718C77.1219 28.6893 74.9718 30.2518 72.9201 31.6736C69.3086 34.123 65.683 36.122 62.3244 37.5438C58.4599 39.1627 54.7499 40.0918 51.3351 40.1903C53.3447 39.1064 55.298 37.6986 57.153 35.9812C58.4739 34.8128 59.7949 33.4333 61.0175 31.9692C62.479 30.2518 63.8983 28.2951 65.1771 26.1976C67.6223 22.5235 69.7723 18.2722 71.6273 13.5704C70.3063 12.0078 68.9432 10.6283 67.4255 9.31908H67.3693C66.3997 11.9656 65.3176 14.415 64.1934 16.7518C62.2822 20.623 60.2305 24.086 58.0383 26.9859C55.4947 30.3081 52.8107 32.9546 49.9299 34.7143C51.0541 32.7576 52.0237 30.6038 52.7685 28.2529C53.3025 26.5355 53.7522 24.7336 54.0895 22.8191C54.4829 20.5667 54.7781 18.1736 54.8764 15.6679C55.0169 11.318 54.7781 6.55996 54.0895 1.57664H54.0473C52.1361 0.886861 50.225 0.394161 48.2295 0C48.6651 2.84359 49.0164 5.53232 49.157 8.17883C49.4521 12.4442 49.3537 16.3999 48.9181 19.9755C48.3841 24.2409 47.302 27.9572 45.7 30.9838C45.7984 28.6893 45.5595 26.2398 45.0114 23.7904C44.6179 22.0308 44.0839 20.2711 43.4515 18.4552C42.6646 16.3014 41.695 14.049 40.5145 11.7967C38.505 7.92544 35.9052 3.96976 32.7855 0C30.776 0.394161 28.8789 0.886861 27.0239 1.56257C28.7805 3.7586 30.4387 5.96872 31.858 8.16475C34.247 11.684 36.1582 15.1189 37.5775 18.4411C39.2357 22.4108 40.1632 26.1694 40.2616 29.6465C39.1936 27.5912 37.7742 25.6345 36.0036 23.7763C34.8794 22.4531 33.5584 21.1861 32.0969 19.9614C30.3403 18.4411 28.3308 16.9771 26.1807 15.6538C22.4708 13.2607 18.3112 11.1491 13.6738 9.29093H13.6316C12.1139 10.6142 10.7508 11.9797 9.42987 13.5422C12.0718 14.5276 14.517 15.5975 16.8076 16.7237C20.6721 18.5819 24.0869 20.6371 26.9677 22.7909C30.3825 25.4374 33.0806 28.2247 34.8794 31.1668C32.926 29.9984 30.7198 29.013 28.2886 28.2247C26.5742 27.6898 24.8738 27.2393 23.0048 26.9578C20.7564 26.5636 18.3674 26.268 15.866 26.1694C12.8306 26.0287 9.65471 26.1272 6.2961 26.4088C4.83462 26.5495 3.31692 26.7044 1.79923 26.9437C1.74302 26.8874 1.74302 26.8874 1.70086 26.8451C1.64465 26.8874 1.64465 26.8874 1.64465 26.9437C1.01228 28.7596 0.52043 30.6178 0.126953 32.5746C2.37539 32.2367 4.56762 31.9411 6.71769 31.744C7.15332 31.6877 7.64517 31.6455 8.0808 31.6455C9.83739 31.5469 11.4956 31.5047 13.1117 31.5047C15.5569 31.5047 17.8475 31.6455 19.9975 31.9411C24.3398 32.476 28.106 33.56 31.1413 35.2211C28.8508 35.1225 26.4056 35.3759 23.862 35.9531C22.1476 36.2909 20.4472 36.8399 18.6906 37.5156C16.5406 38.2477 14.2921 39.2331 12.0015 40.4578C9.3596 41.8232 6.61932 43.4984 3.89309 45.3988C2.62834 46.2857 1.34954 47.2148 0.126953 48.2424C0.52043 50.1569 1.01228 52.0151 1.64465 53.817C3.40124 52.3952 5.21404 51.0297 6.97064 49.805C7.3079 49.5657 7.65922 49.3686 7.95433 49.1715C11.6221 46.6799 15.1353 44.7231 18.4658 43.3436C22.527 41.5839 26.3353 40.6971 29.7501 40.5985C27.6984 41.7247 25.7451 43.1465 23.8339 44.9062C22.513 46.0746 21.2482 47.4541 19.9694 48.9181C18.5079 50.6356 17.1308 52.536 15.866 54.6475C13.4208 58.3217 11.2708 62.573 9.41581 67.2748C10.7368 68.8373 12.0999 70.2169 13.6176 71.5401H13.6597C14.6434 68.8936 15.7114 66.4442 16.7935 64.1074C18.7468 60.2362 20.7985 56.7591 22.9908 53.8733C25.5765 50.4948 28.3167 47.806 31.2538 46.0464C30.0874 48.0031 29.1037 50.1992 28.3167 52.6064C27.7827 54.2675 27.3331 56.0271 27.052 57.9416C26.6585 60.194 26.3634 62.5871 26.265 65.135C26.1105 68.1194 26.2229 71.3008 26.5039 74.6794C26.6585 76.1434 26.799 77.6637 27.0379 79.2263L26.9396 79.2685C26.9817 79.2685 26.9817 79.3107 27.0379 79.3107C28.8507 79.9442 30.7057 80.4369 32.659 80.8311C32.3218 78.5787 32.0267 76.3827 31.8299 74.2289C31.7737 73.7925 31.7316 73.2998 31.7316 72.8634C31.4365 68.5135 31.4365 64.4875 31.9705 60.926C32.5045 56.5761 33.6287 52.8034 35.2869 49.7628C35.1885 52.1137 35.4415 54.5631 35.9755 57.111C36.3128 58.8285 36.8608 60.5881 37.5353 62.39C38.3223 64.5438 39.2919 66.7961 40.4724 69.0485C42.4819 72.9197 45.0676 76.8754 48.1452 80.8451C48.2014 80.9015 48.2014 80.9437 48.2435 81C48.2997 80.9437 48.2997 80.9015 48.2997 80.8451C50.2531 80.451 52.108 79.9583 53.9208 79.3248C53.963 79.3248 53.963 79.2826 54.0192 79.2826L53.9208 79.2403C52.2064 77.0865 50.6044 74.975 49.2272 72.8775C46.782 69.3019 44.8287 65.7826 43.4094 62.4041C41.7512 58.4343 40.8237 54.6757 40.7253 51.1986C41.7933 53.2539 43.2127 55.2106 44.9692 57.1251C46.0935 58.4484 47.5128 59.7716 48.9743 60.94C50.6887 62.4604 52.642 63.8259 54.6937 65.1491C58.4037 67.5422 62.6616 69.696 67.299 71.5542H67.3553C68.8729 70.231 70.2361 68.8655 71.557 67.2888C68.9151 66.3175 66.4699 65.2336 64.1372 64.1074C60.2727 62.1929 56.8016 60.1376 53.9208 57.9416C50.5482 55.3514 47.8641 52.6064 46.1075 49.6642C48.0187 50.8326 50.2109 51.818 52.5999 52.6064C54.3143 53.0991 56.0709 53.5354 57.9821 53.8733C60.2305 54.2675 62.6195 54.5631 65.1209 54.6616C66.0483 54.7179 66.9758 54.7179 67.9595 54.7179C70.1096 54.7179 72.358 54.6194 74.7048 54.4223C76.2225 54.2815 77.7824 54.1267 79.3422 53.8874V53.8451C79.9746 52.0292 80.4665 50.171 80.8599 48.2706C78.6115 48.6084 76.4193 48.9041 74.2692 49.1011C73.8336 49.1434 73.4401 49.1434 73.0044 49.1997C68.6622 49.4953 64.6009 49.439 61.0315 48.9604C56.633 48.4254 52.8669 47.2993 49.7893 45.6382C50.0282 45.6945 50.2812 45.6945 50.5201 45.6945C52.6701 45.6663 54.8624 45.4129 57.167 44.9343ZM40.5005 46.1872C37.3667 46.1872 34.8232 43.6392 34.8232 40.5C34.8232 37.3608 37.3667 34.8128 40.5005 34.8128C43.6342 34.8128 46.1778 37.3608 46.1778 40.5C46.1778 43.6392 43.6342 46.1872 40.5005 46.1872Z" fill="url(#paint1_radial)"/>
<defs>
<radialGradient id="paint0_radial" cx="0" cy="0" r="1" gradientUnits="userSpaceOnUse" gradientTransform="translate(40.4227 40.5) rotate(90) scale(40.5 40.4227)">
<stop offset="0.220994" stop-color="#007A3D"/>
<stop offset="1" stop-color="#003E1F"/>
</radialGradient>
<radialGradient id="paint1_radial" cx="0" cy="0" r="1" gradientUnits="userSpaceOnUse" gradientTransform="translate(47.0005 40) rotate(98.9031) scale(41.5 41.4496)">
<stop stop-color="#42FFA0"/>
<stop offset="0.867445" stop-color="#00743A"/>
</radialGradient>
</defs>
</svg>
