<svg width="81" height="81" viewBox="0 0 81 81" fill="none" xmlns="http://www.w3.org/2000/svg">
<g clip-path="url(#clip0)">
<path d="M18.4653 43.3577C20.2781 43.9911 22.0769 44.5261 23.8334 44.9202C25.7446 43.1606 27.698 41.7388 29.7496 40.6126C26.3348 40.7252 22.5265 41.598 18.4653 43.3577ZM8.10843 31.6595C7.6728 31.6595 7.18095 31.7018 6.74532 31.7581C4.59525 31.9552 2.38897 32.2508 0.140527 32.5886C0.0983692 32.5886 0.0421582 32.6449 0 32.6449C0.0421582 32.6449 0.0983692 32.6872 0.140527 32.7435C4.14556 35.8827 8.10843 38.4729 12.0151 40.4718C14.3057 39.2471 16.5541 38.2758 18.7042 37.5297C15.2894 36.122 11.72 34.109 8.10843 31.6595ZM23.0184 53.8874C24.8734 53.5495 26.6862 53.1554 28.3444 52.6204C29.1313 50.2273 30.101 48.0172 31.2814 46.0605C28.3444 47.8201 25.6041 50.5089 23.0184 53.8874ZM7.9679 49.1856C7.6728 49.3827 7.33553 49.5798 6.98421 49.8191C5.22762 51.0438 3.41482 52.4093 1.65822 53.8311V53.8733C3.21808 54.1126 4.79198 54.2675 6.29563 54.4082C8.64244 54.6053 10.8909 54.7039 13.0409 54.7039C14.0246 54.7039 14.9521 54.7039 15.8796 54.6475C17.1443 52.55 18.5215 50.6356 19.983 48.9181C16.4136 49.4249 12.3664 49.4812 7.9679 49.1856ZM35.3286 49.7768C33.6704 52.8175 32.5461 56.5761 32.0121 60.94C33.4736 59.7716 34.8508 58.4484 36.0172 57.1251C35.4691 54.5631 35.2302 52.1277 35.3286 49.7768ZM16.8071 64.1074C15.7391 66.4583 14.657 68.9077 13.6733 71.5401C18.3107 69.682 22.5687 67.5282 26.2786 65.135C26.377 62.5871 26.6721 60.194 27.0656 57.9416C24.1426 60.1517 20.7137 62.207 16.8071 64.1074ZM40.7529 51.1986C40.8513 54.6757 41.7788 58.4484 43.437 62.4041C44.1256 60.5881 44.6034 58.8285 44.9969 57.1251C43.2403 55.2106 41.821 53.2539 40.7529 51.1986ZM37.577 62.4041C36.1577 65.7826 34.2044 69.3019 31.7592 72.8775C31.7592 73.3139 31.8154 73.8066 31.8576 74.243C32.0543 76.3968 32.3494 78.5928 32.6867 80.8451C32.6867 80.9015 32.6867 80.9437 32.7429 81C32.785 80.9437 32.785 80.9015 32.8413 80.8451C35.9188 76.8754 38.5045 72.9197 40.514 69.0485C39.3336 66.8102 38.3499 64.5579 37.577 62.4041ZM52.6135 52.6064C50.2245 51.818 48.0182 50.8467 46.1211 49.6642C47.8777 52.6064 50.5618 55.3373 53.9344 57.9416C53.6534 56.0412 53.2037 54.2815 52.6135 52.6064ZM54.7214 65.135C52.6697 63.8118 50.7163 62.4463 49.0019 60.926C49.4938 64.5016 49.5359 68.5135 49.2408 72.8634C50.6039 74.9609 52.22 77.0725 53.9344 79.2263C54.1733 77.6637 54.3279 76.1434 54.4684 74.6794C54.7776 71.3149 54.8619 68.1335 54.7214 65.135ZM57.1665 44.9343C54.8759 45.427 52.6697 45.6663 50.5196 45.6663C50.2807 45.6663 50.0278 45.6663 49.7889 45.61C52.8664 47.2711 56.6325 48.3973 61.031 48.9322C59.7522 47.4682 58.4875 46.1027 57.1665 44.9343ZM65.1204 54.6616C62.6331 54.5631 60.23 54.2675 57.9816 53.8733C60.1738 56.7591 62.2255 60.2362 64.1367 64.1074C66.4835 65.2336 68.9287 66.3034 71.5565 67.2888C69.7156 62.6011 67.5656 58.3358 65.1204 54.6616ZM57.1103 35.9672C55.2554 37.6846 53.302 39.1064 51.2925 40.1762C54.7073 40.0777 58.4313 39.1486 62.2817 37.5297C60.5392 36.854 58.8248 36.3191 57.1103 35.9672ZM77.0933 45.4129C74.353 43.4984 71.6268 41.8373 68.9849 40.4718C66.7786 41.598 64.6285 42.5834 62.5347 43.3577C65.8511 44.7231 69.3784 46.6799 72.9899 49.1856C73.4256 49.1293 73.819 49.1293 74.2547 49.0871C76.4047 48.89 78.597 48.5944 80.8454 48.2565C79.6369 47.2289 78.3721 46.2998 77.0933 45.4129ZM52.7118 28.2388C51.9811 30.5897 50.9974 32.7435 49.8732 34.7002C52.754 32.9406 55.4381 30.2941 57.9816 26.9718C56.1407 27.2534 54.3841 27.7039 52.7118 28.2388ZM74.7044 26.4228C71.3317 26.1272 68.1136 26.0287 65.1344 26.1835C63.8697 28.281 62.4504 30.2518 60.9748 31.9552C63.1249 31.6595 65.4155 31.5188 67.8607 31.5188C69.4767 31.5188 71.135 31.5751 72.8916 31.6595C74.9433 30.2377 77.0933 28.6752 79.1872 26.9578C77.6835 26.7185 76.1658 26.5777 74.7044 26.4228ZM48.9035 19.9614C47.4421 21.1861 46.1211 22.4531 44.9969 23.7763C45.5309 26.2258 45.7838 28.6752 45.6855 30.9698C47.2875 27.9432 48.3695 24.2268 48.9035 19.9614ZM54.8197 15.6679C54.7214 18.1595 54.4263 20.5667 54.0328 22.8191C56.9136 20.6653 60.3425 18.61 64.1508 16.7518C65.275 14.4009 66.343 11.9515 67.3267 9.31908C62.6893 11.1632 58.5297 13.2607 54.8197 15.6679ZM37.577 18.4552C36.9447 20.2711 36.3544 22.0308 36.0172 23.7904C37.7738 25.6486 39.1931 27.6053 40.2752 29.6606C40.1627 26.1835 39.2352 22.4108 37.577 18.4552ZM48.229 0C45.0952 3.96976 42.5095 7.92544 40.514 11.7967C41.6804 14.049 42.6641 16.3014 43.4511 18.4552C44.8704 15.133 46.7675 11.6981 49.1705 8.17883C49.0019 5.53232 48.6646 2.84359 48.229 0ZM26.9672 22.805C27.3045 24.7195 27.7542 26.5214 28.2882 28.2388C30.7333 29.0271 32.9256 29.9984 34.8789 31.1809C33.0802 28.2388 30.3961 25.4515 26.9672 22.805ZM31.8576 8.17883C30.4382 5.98279 28.78 3.77268 27.0234 1.57664H26.9813C26.2927 6.57404 26.0538 11.318 26.1943 15.6679C28.3444 16.9911 30.3539 18.4552 32.1105 19.9755C31.6608 16.3999 31.5625 12.4301 31.8576 8.17883ZM20.0252 31.9552C21.2477 33.4192 22.5687 34.7987 23.8897 35.9672C26.4332 35.3759 28.8784 35.1366 31.169 35.2351C28.1476 33.574 24.3815 32.4901 20.0252 31.9552ZM16.8071 16.7377C14.5165 15.6116 12.0713 14.5417 9.42939 13.5563C11.2843 18.2581 13.4344 22.5094 15.8796 26.1835C18.3669 26.2821 20.7699 26.5777 23.0184 26.9718C20.8121 24.0719 18.7604 20.609 16.8071 16.7377Z" fill="#797979"/>
<path d="M57.1665 44.9343C58.9231 44.5401 60.7359 44.0052 62.5487 43.3717C64.6426 42.5834 66.7927 41.6121 68.9989 40.4859C72.9056 38.4729 76.8685 35.8827 80.8735 32.7576C80.9297 32.7012 80.9719 32.659 81.0281 32.659C80.9719 32.659 80.9297 32.6027 80.8735 32.6027C80.48 30.646 79.9882 28.7878 79.3558 26.9718C79.3558 26.9155 79.3558 26.9155 79.3136 26.8733C79.2715 26.9155 79.2715 26.9155 79.2153 26.9718C77.1214 28.6893 74.9714 30.2518 72.9196 31.6736C69.3081 34.123 65.6825 36.122 62.3239 37.5438C58.4594 39.1627 54.7495 40.0918 51.3346 40.1903C53.3442 39.1064 55.2975 37.6986 57.1525 35.9812C58.4734 34.8128 59.7944 33.4333 61.017 31.9692C62.4785 30.2518 63.8978 28.2951 65.1766 26.1976C67.6218 22.5235 69.7718 18.2722 71.6268 13.5704C70.3058 12.0078 68.9427 10.6283 67.425 9.31908H67.3688C66.3992 11.9656 65.3171 14.415 64.1929 16.7518C62.2817 20.623 60.23 24.086 58.0378 26.9859C55.4943 30.3081 52.8102 32.9546 49.9294 34.7143C51.0536 32.7576 52.0232 30.6038 52.768 28.2529C53.302 26.5355 53.7517 24.7336 54.089 22.8191C54.4825 20.5667 54.7776 18.1736 54.8759 15.6679C55.0165 11.318 54.7776 6.55996 54.089 1.57664H54.0468C52.1357 0.886861 50.2245 0.394161 48.229 0C48.6646 2.84359 49.0159 5.53232 49.1565 8.17883C49.4516 12.4442 49.3532 16.3999 48.9176 19.9755C48.3836 24.2409 47.3015 27.9572 45.6995 30.9838C45.7979 28.6893 45.559 26.2398 45.0109 23.7904C44.6174 22.0308 44.0834 20.2711 43.4511 18.4552C42.6641 16.3014 41.6945 14.049 40.514 11.7967C38.5045 7.92544 35.9047 3.96976 32.785 0C30.7755 0.394161 28.8784 0.886861 27.0234 1.56257C28.78 3.7586 30.4382 5.96872 31.8575 8.16475C34.2465 11.684 36.1577 15.1189 37.577 18.4411C39.2352 22.4108 40.1627 26.1694 40.2611 29.6465C39.1931 27.5912 37.7738 25.6345 36.0031 23.7763C34.8789 22.4531 33.5579 21.1861 32.0964 19.9614C30.3399 18.4411 28.3303 16.9771 26.1802 15.6538C22.4703 13.2607 18.3107 11.1491 13.6733 9.29093H13.6311C12.1135 10.6142 10.7503 11.9797 9.42938 13.5422C12.0713 14.5276 14.5165 15.5975 16.8071 16.7237C20.6716 18.5819 24.0864 20.6371 26.9672 22.7909C30.382 25.4374 33.0801 28.2247 34.8789 31.1668C32.9256 29.9984 30.7193 29.013 28.2882 28.2247C26.5737 27.6898 24.8733 27.2393 23.0043 26.9578C20.7559 26.5636 18.3669 26.268 15.8655 26.1694C12.8301 26.0287 9.65422 26.1272 6.29562 26.4088C4.83413 26.5495 3.31644 26.7044 1.79874 26.9437C1.74253 26.8874 1.74253 26.8874 1.70037 26.8451C1.64416 26.8874 1.64416 26.8874 1.64416 26.9437C1.01179 28.7596 0.519942 30.6178 0.126465 32.5746C2.3749 32.2367 4.56713 31.9411 6.7172 31.744C7.15283 31.6877 7.64468 31.6455 8.08031 31.6455C9.83691 31.5469 11.4951 31.5047 13.1112 31.5047C15.5564 31.5047 17.847 31.6455 19.997 31.9411C24.3393 32.476 28.1055 33.56 31.1409 35.2211C28.8503 35.1225 26.4051 35.3759 23.8615 35.9531C22.1471 36.2909 20.4467 36.8399 18.6901 37.5156C16.5401 38.2477 14.2916 39.2331 12.001 40.4578C9.35911 41.8232 6.61883 43.4984 3.8926 45.3988C2.62785 46.2857 1.34905 47.2148 0.126465 48.2424C0.519942 50.1569 1.01179 52.0151 1.64416 53.817C3.40075 52.3952 5.21356 51.0297 6.97015 49.805C7.30741 49.5657 7.65873 49.3686 7.95384 49.1715C11.6216 46.6799 15.1348 44.7231 18.4653 43.3436C22.5265 41.5839 26.3348 40.6971 29.7496 40.5985C27.6979 41.7247 25.7446 43.1465 23.8334 44.9062C22.5125 46.0746 21.2477 47.4541 19.9689 48.9181C18.5074 50.6356 17.1303 52.536 15.8655 54.6475C13.4204 58.3217 11.2703 62.573 9.41532 67.2748C10.7363 68.8373 12.0994 70.2169 13.6171 71.5401H13.6593C14.6429 68.8936 15.711 66.4442 16.793 64.1074C18.7463 60.2362 20.798 56.7591 22.9903 53.8733C25.576 50.4948 28.3163 47.806 31.2533 46.0464C30.0869 48.0031 29.1032 50.1992 28.3163 52.6064C27.7823 54.2675 27.3326 56.0271 27.0515 57.9416C26.658 60.194 26.3629 62.5871 26.2646 65.135C26.11 68.1194 26.2224 71.3008 26.5035 74.6794C26.658 76.1434 26.7986 77.6637 27.0375 79.2263L26.9391 79.2685C26.9812 79.2685 26.9812 79.3107 27.0375 79.3107C28.8503 79.9442 30.7052 80.4369 32.6586 80.8311C32.3213 78.5787 32.0262 76.3827 31.8294 74.2289C31.7732 73.7925 31.7311 73.2998 31.7311 72.8634C31.436 68.5135 31.436 64.4875 31.97 60.926C32.504 56.5761 33.6282 52.8034 35.2864 49.7628C35.188 52.1137 35.441 54.5631 35.975 57.111C36.3123 58.8285 36.8603 60.5881 37.5349 62.39C38.3218 64.5438 39.2914 66.7961 40.4719 69.0485C42.4814 72.9197 45.0671 76.8754 48.1447 80.8451C48.2009 80.9015 48.2009 80.9437 48.243 81C48.2993 80.9437 48.2993 80.9015 48.2993 80.8451C50.2526 80.451 52.1075 79.9583 53.9203 79.3248C53.9625 79.3248 53.9625 79.2826 54.0187 79.2826L53.9203 79.2403C52.2059 77.0865 50.6039 74.975 49.2267 72.8775C46.7816 69.3019 44.8282 65.7826 43.4089 62.4041C41.7507 58.4343 40.8232 54.6757 40.7248 51.1986C41.7928 53.2539 43.2122 55.2106 44.9688 57.1251C46.093 58.4484 47.5123 59.7716 48.9738 60.94C50.6882 62.4604 52.6416 63.8259 54.6932 65.1491C58.4032 67.5422 62.6612 69.696 67.2986 71.5542H67.3548C68.8725 70.231 70.2356 68.8655 71.5565 67.2888C68.9146 66.3175 66.4694 65.2336 64.1367 64.1074C60.2722 62.1929 56.8012 60.1376 53.9203 57.9416C50.5477 55.3514 47.8636 52.6064 46.107 49.6642C48.0182 50.8326 50.2104 51.818 52.5994 52.6064C54.3138 53.0991 56.0704 53.5354 57.9816 53.8733C60.23 54.2675 62.619 54.5631 65.1204 54.6616C66.0479 54.7179 66.9753 54.7179 67.959 54.7179C70.1091 54.7179 72.3575 54.6194 74.7043 54.4223C76.222 54.2815 77.7819 54.1267 79.3417 53.8874V53.8451C79.9741 52.0292 80.466 50.171 80.8594 48.2706C78.611 48.6084 76.4188 48.9041 74.2687 49.1011C73.8331 49.1434 73.4396 49.1434 73.004 49.1997C68.6617 49.4953 64.6004 49.439 61.031 48.9604C56.6325 48.4254 52.8664 47.2993 49.7888 45.6382C50.0277 45.6945 50.2807 45.6945 50.5196 45.6945C52.6697 45.6663 54.8619 45.4129 57.1665 44.9343ZM40.5 46.1872C37.3662 46.1872 34.8227 43.6392 34.8227 40.5C34.8227 37.3608 37.3662 34.8128 40.5 34.8128C43.6337 34.8128 46.1773 37.3608 46.1773 40.5C46.1773 43.6392 43.6337 46.1872 40.5 46.1872Z" fill="white"/>
</g>
<defs>
<clipPath id="clip0">
<rect width="81" height="81" fill="white"/>
</clipPath>
</defs>
</svg>
